<?xml version="1.0" encoding="UTF-8" standalone="no"?>
<svg
   xmlns:osb="http://www.openswatchbook.org/uri/2009/osb"
   xmlns:dc="http://purl.org/dc/elements/1.1/"
   xmlns:cc="http://creativecommons.org/ns#"
   xmlns:rdf="http://www.w3.org/1999/02/22-rdf-syntax-ns#"
   xmlns:svg="http://www.w3.org/2000/svg"
   xmlns="http://www.w3.org/2000/svg"
   xmlns:sodipodi="http://sodipodi.sourceforge.net/DTD/sodipodi-0.dtd"
   xmlns:inkscape="http://www.inkscape.org/namespaces/inkscape"
   version="1.1"
   x="0px"
   y="0px"
   viewBox="0 0 1000 1000"
   enable-background="new 0 0 1000 1000"
   xml:space="preserve"
   id="svg14"
   sodipodi:docname="CurrentMatch.svg"
   inkscape:version="1.0.1 (3bc2e813f5, 2020-09-07)"
   inkscape:export-filename="C:\src\CodeBeagle\resources\current.png"
   inkscape:export-xdpi="3.1496019"
   inkscape:export-ydpi="3.1496019"><defs
   id="defs18"><linearGradient
     id="linearGradient2800"
     osb:paint="solid"><stop
       style="stop-color:#000000;stop-opacity:1;"
       offset="0"
       id="stop2798" /></linearGradient></defs><sodipodi:namedview
   pagecolor="#ffffff"
   bordercolor="#666666"
   borderopacity="1"
   objecttolerance="10"
   gridtolerance="10"
   guidetolerance="10"
   inkscape:pageopacity="0"
   inkscape:pageshadow="2"
   inkscape:window-width="1920"
   inkscape:window-height="1017"
   id="namedview16"
   showgrid="false"
   inkscape:zoom="0.30052038"
   inkscape:cx="117.5146"
   inkscape:cy="291.45115"
   inkscape:window-x="1912"
   inkscape:window-y="-8"
   inkscape:window-maximized="1"
   inkscape:current-layer="svg14" />
<metadata
   id="metadata2"> Svg Vector Icons : http://www.onlinewebfonts.com/icon <rdf:RDF><cc:Work
     rdf:about=""><dc:format>image/svg+xml</dc:format><dc:type
       rdf:resource="http://purl.org/dc/dcmitype/StillImage" /></cc:Work></rdf:RDF></metadata>
<g
   id="g12"
   style="fill:#646464;fill-opacity:1"
   inkscape:export-filename="C:\src\CodeBeagle\resources\current.png"
   inkscape:export-xdpi="3.6245129"
   inkscape:export-ydpi="3.6245129"><g
     transform="matrix(0.1,0,0,-0.1,0,511)"
     id="g10"
     style="fill:#646464;fill-opacity:1"><path
       d="m 4772.1,4366.4 c -623,-99.3 -1119.5,-539.3 -1294.8,-1142.9 -37,-130.4 -44.8,-196.7 -42.8,-436.1 2,-406.9 40.9,-527.6 348.5,-1080.6 379.7,-681.5 741.8,-1485.6 1004.7,-2229.3 72,-206.4 122.7,-272.6 208.3,-272.6 103.2,0 134.4,50.6 274.5,428.3 319.3,864.5 605.5,1489.5 1002.7,2180.6 235.6,410.8 317.4,704.8 297.9,1070.9 -15.6,253.1 -50.6,387.5 -159.7,613.3 -194.7,403 -558.8,704.8 -1002.7,827.5 -163.5,44.8 -478.9,66.2 -636.6,40.9 z M 5264.7,3389 c 126.5,-48.7 274.5,-185 334.9,-313.5 161.6,-331 25.3,-724.3 -305.7,-885.9 -95.4,-46.7 -132.4,-54.5 -284.3,-54.5 -208.3,0 -317.4,44.8 -457.5,185 -126.6,124.6 -181.1,247.3 -190.8,426.4 -9.7,196.6 42.8,340.7 177.2,482.9 196.6,208.3 447.7,262.8 726.2,159.6 z"
       id="path4"
       style="fill:#646464;fill-opacity:1" /><path
       d="M 3138.5,830.6 C 1004.6,363.4 -216.2,-804.8 171.3,-2008.1 c 609.4,-1896.4 4832.5,-2788.1 7758.8,-1635.5 1026.1,403 1705.6,998.8 1921.7,1680.3 64.2,210.3 64.2,588 0,798.3 C 9592.9,-331.7 8633,363.4 7200,750.8 c -196.6,52.6 -644.5,148 -699,148 -23.3,0 -64.2,-68.1 -134.3,-218.1 -56.5,-118.8 -99.3,-220 -95.4,-222 3.9,-3.9 122.6,-29.2 266.7,-56.5 1359,-260.9 2369.6,-856.7 2624.6,-1545.9 64.2,-173.3 77.9,-432.2 33.1,-603.6 -202.5,-776.8 -1273.4,-1421.3 -2794,-1684.2 -506.2,-89.6 -841.1,-114.9 -1440.8,-114.9 -1113.7,0 -2059.9,173.3 -2881.6,529.6 -1209.1,525.8 -1688,1382.5 -1187.6,2130.2 122.7,183 389.4,440 611.4,586 482.8,319.3 1267.4,603.6 1997.6,724.3 112.9,17.5 210.3,38.9 220,46.7 7.8,5.8 -29.2,105.1 -83.7,220 -116.9,245.4 -74,233.7 -498.5,140.2 z"
       id="path6"
       style="fill:#646464;fill-opacity:1" /><path
       d="m 3763.5,-734.8 c -730.1,-188.9 -1092.3,-484.8 -1002.7,-819.7 31.2,-114.9 218.1,-299.9 401.1,-395.2 961.8,-498.4 2934.1,-471.2 3779.2,56.5 218,136.3 321.3,274.5 323.2,434.2 3.9,297.9 -364.1,558.8 -1018.3,726.2 -122.6,31.1 -235.6,52.5 -249.2,50.6 -15.6,-3.9 -56.5,-85.7 -89.6,-181.1 -35,-97.3 -93.4,-223.9 -132.4,-282.3 -202.5,-315.4 -558.8,-486.7 -895.6,-430.3 -369.9,60.4 -652.2,334.9 -794.4,767.1 -29.2,93.4 -50.6,130.4 -74,130.4 -17.5,-1.8 -128.5,-27.1 -247.3,-56.4 z"
       id="path8"
       style="fill:#646464;fill-opacity:1" /></g></g>
</svg>
