<?xml version="1.0" encoding="utf-8"?>
<!-- Svg Vector Icons : http://www.onlinewebfonts.com/icon -->
<!DOCTYPE svg PUBLIC "-//W3C//DTD SVG 1.1//EN" "http://www.w3.org/Graphics/SVG/1.1/DTD/svg11.dtd">
<svg version="1.1" xmlns="http://www.w3.org/2000/svg" xmlns:xlink="http://www.w3.org/1999/xlink" x="0px" y="0px" viewBox="0 0 1000 1000" enable-background="new 0 0 1000 1000" xml:space="preserve">
<metadata> Svg Vector Icons : http://www.onlinewebfonts.com/icon </metadata>
<g><g transform="translate(0.000000,511.000000) scale(0.100000,-0.100000)"><path d="M4772.1,4366.4c-623-99.3-1119.5-539.3-1294.8-1142.9c-37-130.4-44.8-196.7-42.8-436.1c2-406.9,40.9-527.6,348.5-1080.6c379.7-681.5,741.8-1485.6,1004.7-2229.3c72-206.4,122.7-272.6,208.3-272.6c103.2,0,134.4,50.6,274.5,428.3c319.3,864.5,605.5,1489.5,1002.7,2180.6c235.6,410.8,317.4,704.8,297.9,1070.9c-15.6,253.1-50.6,387.5-159.7,613.3c-194.7,403-558.8,704.8-1002.7,827.5C5245.2,4370.3,4929.8,4391.7,4772.1,4366.4z M5264.7,3389c126.5-48.7,274.5-185,334.9-313.5c161.6-331,25.3-724.3-305.7-885.9c-95.4-46.7-132.4-54.5-284.3-54.5c-208.3,0-317.4,44.8-457.5,185c-126.6,124.6-181.1,247.3-190.8,426.4c-9.7,196.6,42.8,340.7,177.2,482.9C4735.1,3437.7,4986.2,3492.2,5264.7,3389z"/><path d="M3138.5,830.6C1004.6,363.4-216.2-804.8,171.3-2008.1c609.4-1896.4,4832.5-2788.1,7758.8-1635.5c1026.1,403,1705.6,998.8,1921.7,1680.3c64.2,210.3,64.2,588,0,798.3C9592.9-331.7,8633,363.4,7200,750.8c-196.6,52.6-644.5,148-699,148c-23.3,0-64.2-68.1-134.3-218.1c-56.5-118.8-99.3-220-95.4-222c3.9-3.9,122.6-29.2,266.7-56.5c1359-260.9,2369.6-856.7,2624.6-1545.9c64.2-173.3,77.9-432.2,33.1-603.6c-202.5-776.8-1273.4-1421.3-2794-1684.2c-506.2-89.6-841.1-114.9-1440.8-114.9c-1113.7,0-2059.9,173.3-2881.6,529.6C870.2-2491,391.3-1634.3,891.7-886.6c122.7,183,389.4,440,611.4,586C1985.9,18.7,2770.5,303,3500.7,423.7c112.9,17.5,210.3,38.9,220,46.7c7.8,5.8-29.2,105.1-83.7,220C3520.1,935.8,3563,924.1,3138.5,830.6z"/><path d="M3763.5-734.8c-730.1-188.9-1092.3-484.8-1002.7-819.7c31.2-114.9,218.1-299.9,401.1-395.2c961.8-498.4,2934.1-471.2,3779.2,56.5c218,136.3,321.3,274.5,323.2,434.2c3.9,297.9-364.1,558.8-1018.3,726.2c-122.6,31.1-235.6,52.5-249.2,50.6c-15.6-3.9-56.5-85.7-89.6-181.1c-35-97.3-93.4-223.9-132.4-282.3c-202.5-315.4-558.8-486.7-895.6-430.3c-369.9,60.4-652.2,334.9-794.4,767.1c-29.2,93.4-50.6,130.4-74,130.4C3993.3-680.2,3882.3-705.5,3763.5-734.8z"/></g></g>
</svg>